<?xml version="1.0" standalone="no"?><!DOCTYPE svg PUBLIC "-//W3C//DTD SVG 1.1//EN" "http://www.w3.org/Graphics/SVG/1.1/DTD/svg11.dtd"><svg t="1776164638060" class="icon" viewBox="0 0 1024 1024" version="1.1" xmlns="http://www.w3.org/2000/svg" p-id="19603" xmlns:xlink="http://www.w3.org/1999/xlink" width="200" height="200"><path d="M199.1168 0h625.7664C934.690133 0 1024 89.309867 1024 199.1168v625.7664C1024 934.690133 934.690133 1024 824.8832 1024H199.1168C89.309867 1024 0 934.690133 0 824.8832V199.1168C0 89.309867 89.309867 0 199.1168 0z" fill="#170B1A" p-id="19604"></path><path d="M511.4368 302.08c0.5632-64.290133 0-128.5632 0.5632-192.853333h131.413333c-0.5632 11.383467 1.143467 22.749867 2.850134 33.570133H549.546667v522.24c0.5632 22.186667-5.12 44.373333-15.9232 63.709867-17.066667 29.576533-48.930133 50.056533-83.063467 52.906666-21.623467 1.706667-43.810133-2.269867-63.146667-13.090133a108.407467 108.407467 0 0 1-36.983466-32.989867c33.570133 18.773333 77.380267 17.066667 109.806933-3.976533C491.52 712.2432 512 675.84 512 638.293333c-0.5632-112.0768-0.5632-224.136533-0.5632-336.213333z m216.746667-36.983467c18.193067 11.383467 38.673067 20.48 59.733333 25.0368a170.0352 170.0352 0 0 0 38.109867 3.976534v29.5936c-37.546667-8.533333-72.2432-29.5936-97.8432-58.606934z" fill="#25F4EE" p-id="19605"></path><path d="M274.773333 428.936533a238.011733 238.011733 0 0 1 159.2832-33.553066V426.666667c-14.779733 0.5632-29.013333 2.269867-43.793066 5.12a249.480533 249.480533 0 0 0-97.860267 43.810133c-31.2832 23.313067-55.176533 55.176533-71.68 90.453333a243.4048 243.4048 0 0 0-23.313067 108.0832c0 40.96 11.3664 80.776533 30.72 116.616534 9.096533 16.503467 19.336533 32.426667 32.989867 45.5168-27.869867-19.336533-51.2-45.5168-68.266667-75.093334-23.330133-39.253333-34.696533-85.333333-33.570133-131.413333 1.706667-42.103467 13.653333-83.626667 35.84-120.029867a240.3328 240.3328 0 0 1 79.650133-80.7936z" fill="#25F4EE" p-id="19606"></path><path d="M549.546667 142.7968h97.28c3.413333 18.773333 10.24 36.4032 18.773333 53.469867 13.653333 26.1632 32.989867 49.493333 58.026667 64.853333 1.706667 1.143467 2.850133 2.269867 3.976533 3.976533 25.6 29.013333 60.3136 50.0736 98.423467 58.606934 0.5632 34.133333 0 68.829867 0 102.9632a308.155733 308.155733 0 0 1-180.906667-57.463467c0 81.92 0 163.84 0.5632 245.76 0 10.820267 0.580267 21.623467 0 33.006933-2.833067 39.816533-15.36 79.069867-35.259733 113.7664a247.3984 247.3984 0 0 1-68.266667 77.380267c-35.84 26.7264-80.213333 41.5232-124.586667 42.666667-22.766933 0.5632-45.5168-0.580267-67.703466-5.700267a243.575467 243.575467 0 0 1-87.04-38.109867l-1.706667-1.706666c-13.090133-13.090133-23.893333-29.013333-32.989867-45.5168-19.3536-35.259733-30.72-75.656533-30.72-116.616534a245.0944 245.0944 0 0 1 23.313067-108.0832c16.503467-35.2768 40.96-67.140267 71.68-90.453333a249.480533 249.480533 0 0 1 97.860267-43.810133c14.216533-2.850133 29.013333-4.5568 43.793066-5.12 0.580267 13.090133 0 26.1632 0.580267 38.690133v66.56c-16.503467-5.700267-34.7136-5.700267-51.780267-1.706667-20.48 4.539733-39.816533 13.653333-55.739733 27.306667-9.6768 8.533333-18.210133 18.773333-23.893333 30.139733-10.24 19.3536-13.653333 42.103467-11.383467 63.726934a107.281067 107.281067 0 0 0 25.0368 57.4464C325.973333 720.213333 337.92 728.746667 349.866667 736.7168c9.6768 13.653333 22.186667 25.019733 36.983466 32.989867 19.336533 10.24 41.5232 14.7968 63.146667 13.090133 34.133333-2.286933 65.979733-23.330133 83.0464-52.906667a124.791467 124.791467 0 0 0 15.940267-63.726933c1.1264-175.2064 0.5632-349.2864 0.5632-523.3664z" fill="#FFFFFF" p-id="19607"></path><path d="M646.826667 142.7968c11.383467 0.5632 22.749867 0 34.696533 0 0 38.109867 11.946667 76.219733 34.133333 107.52 2.850133 3.976533 5.700267 7.389867 8.533334 10.8032-25.019733-15.36-44.936533-38.690133-58.026667-64.853333-8.533333-16.503467-15.36-34.696533-19.336533-53.469867z m179.2 180.906667a170.018133 170.018133 0 0 0 38.109866 3.976533v132.5568c-64.853333 0.5632-129.706667-21.060267-182.613333-59.170133v262.826666a229.5808 229.5808 0 0 1-5.6832 59.170134c-12.509867 59.153067-47.786667 112.64-96.7168 147.336533a236.731733 236.731733 0 0 1-86.459733 38.690133c-37.546667 8.533333-76.8 7.953067-113.783467-1.706666a239.7696 239.7696 0 0 1-115.490133-69.410134c26.180267 18.773333 55.7568 31.2832 87.04 38.109867 22.186667 5.12 44.9536 6.263467 67.703466 5.700267 44.373333-1.143467 88.746667-15.940267 124.586667-42.666667 27.869867-20.48 50.6368-47.223467 68.266667-77.380267 19.9168-34.696533 32.426667-73.949867 35.2768-113.7664 0.5632-10.820267 0.5632-21.623467 0-33.006933-0.580267-81.92-0.580267-163.84-0.580267-245.76 52.343467 37.546667 116.6336 58.026667 180.906667 57.463467-0.5632-34.133333 0-68.829867-0.5632-102.9632z" fill="#FE2C55" p-id="19608"></path><path d="M434.6368 426.103467c12.509867 0 25.6 0.5632 38.109867 2.269866v135.970134c-18.210133-6.263467-38.690133-6.826667-57.463467-2.286934-35.84 7.970133-65.979733 35.2768-78.506667 69.973334-12.509867 34.133333-7.389867 73.966933 14.2336 102.980266-12.526933-7.406933-23.893333-16.503467-33.006933-27.886933a107.281067 107.281067 0 0 1-25.019733-57.4464c-2.286933-21.623467 1.1264-44.373333 11.3664-63.726933 5.700267-11.3664 14.2336-21.6064 23.893333-30.139734 15.940267-13.653333 35.84-22.186667 55.7568-27.306666 17.066667-3.9936 35.2768-3.9936 51.7632 1.706666v-66.56c-1.1264-11.383467-0.5632-24.4736-1.1264-37.546666z" fill="#FE2C55" p-id="19609"></path></svg>