<?xml version="1.0" standalone="no"?><!DOCTYPE svg PUBLIC "-//W3C//DTD SVG 1.1//EN" "http://www.w3.org/Graphics/SVG/1.1/DTD/svg11.dtd"><svg t="1776164782393" class="icon" viewBox="0 0 1142 1024" version="1.1" xmlns="http://www.w3.org/2000/svg" p-id="21695" xmlns:xlink="http://www.w3.org/1999/xlink" width="223.046875" height="200"><path d="M936.825652 1023.999063h-754.865395c-73.984665 0-134.565896-60.523107-134.565896-134.567772V134.567771c0-74.044665 60.522169-134.568709 134.566833-134.568708h754.924458c73.984665 0 134.507771 60.524044 134.507771 134.568708v754.92352c0 73.984665-60.523107 134.507771-134.567771 134.507772z" fill="#F40009" p-id="21696"></path><path d="M334.041461 148.982767l-194.671816 137.368083 194.671816 142.668707z m15.370307 0v280.03679l200.629627-138.677771zM139.368707 306.305532v278.010852l191.338067-138.974957zM334.040523 459.63736v278.667102l-194.670878-142.312456z m15.370308 0v278.667102l190.979942-139.33402z m6.671248 290.699911l197.29494 142.012457-1.0125-280.333977z m209.983061-138.319645v280.331164l196.63869-142.368706z m11.971871-12.033747L769.73414 458.683923l1.0125 279.620539zM783.374761 458.683923v279.620539l196.69869-140.822769z m4.706248-14.354996l191.992442 139.987457V305.353032z m-4.706248-295.34616v280.03679l196.69869-142.014332z m-12.628121 0L567.077639 290.996161 770.74664 429.019557z" fill="#FFFFFF" p-id="21697"></path><path d="M434.596742 239.826489c-0.359062 6.909373-6.792185 12.389996-14.654995 12.389997-7.92281 0-14.296871-5.479686-14.653121-12.389997-16.560932 2.800312-22.637806 8.041873-35.444989 14.534996a2.675624 2.675624 0 0 0-0.65625 4.289061l10.366872 15.36937 5.418749-5.480623v55.101546a5.593123 5.593123 0 0 0 5.600623 5.599686h58.199982c3.335624 0 6.074998-2.740312 6.074998-6.075936v-54.684358l5.421561 5.479685 9.709685-12.688121c1.607812-1.607812 2.203124-6.374998 0.12-7.387497-12.449996-6.314061-20.373744-12.210934-35.503115-14.057809z m-187.46713 86.911849c0.239062 0.417187 4.109999 6.731248 11.497497 7.029373 6.016873 0.178125 9.888747-3.752811 10.484996-4.408124 0.714375 0.655312 5.599686 4.646249 12.509997 3.693749 6.373123-0.893437 9.887809-5.420623 10.484059-6.255936 0.535312 0.358125 6.314061 3.931874 11.257496 1.490625 5.361561-2.681249 6.016873-9.948747 5.004374-14.238746-0.59625-2.500312-1.607812-3.334686-4.527186-7.504685-0.65625-0.953437-3.454686-5.778748-9.05531-15.487495-2.262187-3.871874-5.003436-8.697185-8.159997-14.296871a290.587411 290.587411 0 0 1 3.275624-13.999683c1.310625-5.122498 2.084999-7.385623 1.012499-10.245935-0.35625-0.893437-0.714375-1.490625-3.752811-6.254998 2.204062-4.527186 2.084999-8.518122 0.239062-9.768747-1.131562-0.774375-2.740312-0.298125-3.039374-0.238125-2.619374 0.773437-4.466249 4.049999-4.466248 8.219998-1.310625 0.06-4.049999 0.417187-6.732186 2.264062a13.805621 13.805621 0 0 0-3.513749 3.515624c-0.953437-1.1925-2.920312-3.455624-6.254998-4.767186a13.673433 13.673433 0 0 0-4.528123-1.0125c0.178125-3.871874-1.429687-7.029373-3.989999-7.981873-0.358125-0.12-1.846874-0.715312-3.037499-0.06-1.966874 1.0725-2.503124 5.122498-0.65625 10.06781-0.953437 1.607812-2.204999 4.169999-2.740312 7.504685-0.834375 4.884374 0.238125 9.11531 1.0125 11.974684 1.430625 5.418748 2.919374 6.553123 2.503124 9.768747-0.359062 2.918437-1.966874 5.122498-3.277499 6.493123-6.194998 11.139372-12.329996 22.338743-18.525932 33.478115-1.0125 4.646249 1.0125 9.41156 5.003436 11.735621 3.693749 2.263124 8.45906 1.964999 11.973747-0.715312z m-56.233108 89.234973c0.774375-10.603122 8.876247-19.003119 18.52687-20.015619 11.079372-1.190625 21.980618 7.624685 22.993118 20.015619 3.157499 0.357187 8.339997 1.490625 12.629058 5.420623 1.905937 1.787812 4.586249 4.944373 7.267498 16.739995 2.264062 10.006872 2.800312 18.406869 3.633749 31.809365-0.358125 1.430625-1.429687 5.242498-5.003436 8.518122-3.693749 3.396561-7.804685 4.050936-9.233435 4.229999h-59.509669c-1.549687-0.238125-6.254998-1.131562-10.246872-5.241561-3.514686-3.574686-4.467186-7.625623-4.765311-9.234372-0.119062-2.323124-0.953437-26.447804 6.016873-39.255925 1.071562-1.905937 2.978437-5.479686 7.029373-8.518123 3.990936-2.978437 8.160935-4.049999 10.662184-4.468123z" fill="#F40009" p-id="21698"></path><path d="M198.164002 415.735186h27.522179s-2.740312-11.973746-13.761558-11.973747-13.759683 11.973746-13.759683 11.973747z" fill="#FFFFFF" p-id="21699"></path><path d="M301.159596 636.499493h6.493123s-0.773437-29.427179 0-34.014364c1.727812-10.007809 11.080309-27.044054 10.007809-33.23999-2.264062-13.223433-14.772183-21.503431-16.499995-20.729994s-16.50187 17.275307-21.028118 29.487179-12.748121 29.249991-13.999684 29.487178-14.474996 2.024999-26.507804 6.493123c-11.080309 4.169999-20.015619 8.518122-17.99062 12.509996s13.760621 10.006872 30.262491 10.006872c19.776556 0 26.507804-1.249687 30.022491-16.023745 3.454686-14.474996 3.812811-21.326243 10.245934-27.998429 0.47625-0.47625 4.109999-4.228124 6.254998-3.275624 0 0 0.475312 0.238125 2.50125 3.275624l0.238125 44.022174z m75.236227-3.513749h87.269973c0.715312-0.179062 1.846874-0.53625 2.978437-1.490624 1.846874-1.546875 2.382187-3.573749 2.501249-4.228124v-58.259045c-0.35625-0.834375-1.071562-2.264062-2.501249-3.515624-2.263124-1.964999-4.884374-2.203124-5.778749-2.263124h-13.521558c-0.894375-1.965937-2.502187-2.978437-6.254998-8.219997-1.369687-1.906874-3.573749-2.384062-5.004374-2.979374h-32.226552c-1.1325 0.595312-2.979374 1.0125-3.752812 2.503124-2.740312 5.241561-5.242498 6.611248-6.015935 8.756247-5.898748 0.238125-11.855621 0.47625-17.752495 0.774375-0.655312 0.119062-2.024999 0.53625-3.275624 1.726874-1.668749 1.668749-1.965937 3.693749-2.025937 4.229999v57.722795c0.12 0.655312 0.654375 2.382187 2.264062 3.751874 1.249687 1.0125 2.441249 1.370625 3.096562 1.490624z m109.250591 57.007483l-5.241561 6.731248h10.722185z m-54.506233 58.496232c0.535312-3.811874 3.633749-24.423743 22.278743-38.005301 16.499995-12.032809 37.349989-12.866246 51.944047-7.089373 9.292497 3.693749 16.619995 10.246872 17.812494 11.319372 4.347186 3.929999 8.040935 7.267498 10.781247 12.985308 6.493123 13.523433 4.348124 20.729994 6.493123 20.729994-2.084999-1.249687-7.32656-3.989999-14.475933-3.751874-6.134998 0.178125-10.662184 2.501249-12.747184 3.751874-1.965937-1.309687-6.254998-3.811874-12.271871-4.228124a24.988117 24.988117 0 0 0-9.769684 1.24875v42.474362c-0.595312 1.786874-1.785937 4.468124-4.109999 6.909373-4.528124 4.706249-12.031871 7.268435-19.121244 5.123436-9.530622-2.918437-13.284371-12.867184-13.165309-17.27437 0.06-2.024999 0.953437-3.693749 0.953437-3.693749 0.238125-0.358125 2.203124-3.931874 5.241561-3.812811 2.740312 0.12 4.587186 3.157499 5.242499 5.004373 0.893437 2.442187-0.178125 3.335624 0.774374 5.003436 1.54875 2.860312 6.671248 4.169999 9.233435 2.503125 1.309687-0.894375 3.930936-5.064373 2.977499-3.753749l1.251562-38.779676c-2.263124-0.65625-6.493123-1.60875-11.734684-0.774375a26.296867 26.296867 0 0 0-10.246871 3.989999c-2.024999-1.190625-6.969373-3.751874-13.759684-3.751874-6.731248 0.178125-11.496559 2.680312-13.581558 3.871874z m168.938386-16.32187v49.859985c0 4.586249 3.752811 8.339997 8.339997 8.339997h48.96561c3.871874 0 7.029373-3.158437 7.029373-7.03031v-50.990609c0-2.920312-2.383124-5.362498-5.360623-5.362499h-53.850921c-2.800312 0-5.123436 2.324999-5.123436 5.183436z m5.062498-13.165308h55.698733c1.607812 0 3.037499-1.131562 3.216562-2.62125 0.178125-1.727812-0.53625-3.633749-4.825311-3.633749h-54.089046c-1.786874 0-3.215624 1.370625-3.215624 3.098437-0.060937 1.726874 1.429687 3.156562 3.215624 3.156562z m2.503125-6.254999s7.207498-14.474996 21.028118-14.474995c25.972492-0.06 28.771866 14.474996 28.771866 14.474995h-49.799984z" fill="#F40009" p-id="21700"></path><path d="M635.225431 703.158535h-4.349061a2.732812 2.732812 0 0 1-2.739374-2.740311v-5.480624a2.732812 2.732812 0 0 1 2.739374-2.740311h4.349999c1.489687 0 2.739374 1.190625 2.739374 2.740311v5.479686a2.732812 2.732812 0 0 1-2.740312 2.740312z m51.944984-140.167457c2.681249-1.846874 8.99531-5.539686 17.751557-6.016873 10.961247-0.595312 18.884057 4.229999 21.504369 6.016873l-4.229999-15.18937c-0.594375-2.264062-2.679374-3.812811-5.002498-3.812812h-21.505306c-2.084999 0-3.931874 1.429687-4.408124 3.393749l-4.109999 15.609371z m39.196863 66.778105c-2.681249 1.846874-8.99531 5.539686-17.751557 6.014998-10.961247 0.59625-18.884057-4.228124-21.505306-6.015936l4.229999 15.190308c0.595312 2.264062 2.681249 3.812811 5.003436 3.812812h21.505306c2.084999 0 3.930936-1.429687 4.407186-3.395624l4.109999-15.607496z" fill="#F40009" p-id="21701"></path><path d="M675.137606 595.873881a31.393115 31.393115 0 1 0 62.786231 0 31.393115 31.393115 0 1 0-62.786231 0z m149.399955-39.614051h-3.216562a2.390624 2.390624 0 0 1-2.383124-2.383124V542.140147a2.390624 2.390624 0 0 1 2.383124-2.382187h3.216562a2.390624 2.390624 0 0 1 2.383124 2.382187v11.735621a2.390624 2.390624 0 0 1-2.383124 2.383125z m27.819366 0h-3.455624c-1.36875 0-2.561249-1.1325-2.561249-2.561249v-14.178746c0-1.370625 1.131562-2.561249 2.561249-2.561249h3.455624c1.369687 0 2.561249 1.130625 2.56125 2.561249v14.179684c0 1.429687-1.190625 2.561249-2.56125 2.561249z m28.056554 0h-3.633749a2.669999 2.669999 0 0 1-2.680311-2.680311v-11.20031a2.669999 2.669999 0 0 1 2.680311-2.679374h3.633749a2.669999 2.669999 0 0 1 2.680312 2.679374v11.20031c-0.059062 1.48875-1.249687 2.680312-2.680312 2.680311z m2.204062 85.481224h-63.202481a8.008123 8.008123 0 0 1-8.041872-8.040935V567.696389a3.203437 3.203437 0 0 1 3.216561-3.215624h73.390291a2.924062 2.924062 0 0 1 2.917499 2.918437v66.061855a8.263122 8.263122 0 0 1-8.279998 8.279997z" fill="#F40009" p-id="21702"></path><path d="M889.409729 583.244822s14.594058 1.60875 19.478431 9.769685c5.479686 9.114372 2.679374 19.776556-3.514686 24.719992-6.493123 5.243436-14.474996 5.243436-14.474996 5.243436v-7.50656s13.759683-3.989999 12.509059-13.521559-13.998746-11.020309-13.998746-11.020309v-7.684685z m-37.052802-142.371519c-1.370625 2.442187-1.310625 5.420623 0.119063 7.86281 3.335624 5.718748 10.781247 13.880621 19.359369 19.539369 11.437497 7.505623 20.729994 6.015936 20.729994 6.015936s14.237808 12.987184 18.525931 13.999683 5.480623-1.251562 5.480624-4.765311v-14.000621s10.007809-3.751874 15.24937-8.993435 8.221872-8.757185 11.260309-7.743747 10.483122 11.259372 16.26187 12.270934 10.006872-2.503124 7.981873-8.518123-5.479686-11.676559-5.479686-11.676559 6.015936-8.099998 6.015936-13.819683c0-5.777811-5.777811-10.246872-11.02031-7.505623s-11.019372 11.973746-14.474995 11.973747-10.722184-9.649685-17.751557-12.808121-8.51906-4.169999-8.51906-4.169999 1.727812-15.011245 0-17.275307-8.219997 0.239062-12.270934 3.277499-11.020309 10.245934-11.020309 10.245934-12.509996-0.239062-26.984992 9.768747c-6.374061 4.408124-10.960309 11.794684-13.462496 16.32187z m-43.485924-148.744642a42.651549 42.651549 0 1 0 85.303099 0 42.651549 42.651549 0 1 0-85.303099 0z" fill="#F40009" p-id="21703"></path><path d="M819.116938 226.005869s10.723122-2.442187 18.524994 0.774374c10.246872 4.229999 11.259372 18.525932 11.259371 18.525932s-9.47156 5.480623-19.479369-2.024999-10.304997-17.27437-10.304996-17.27437z m55.816857 5.123435s-8.101873-1.846874-13.999683 0.595313c-7.743748 3.216562-8.518122 13.999683-8.518122 13.999683s7.207498 4.169999 14.774058-1.489687 7.743748-13.105309 7.743747-13.105309z m-189.431192 98.230283h43.783112c0.358125 0 0.53625-0.477187 0.179062-0.655312-1.905937-1.0725-6.075936-3.335624-11.140309-5.182499-7.028435-2.502187-8.994372-4.229999-8.994372-4.229998V304.399595s8.994372-7.565623 15.011245-12.211872 15.726558-17.39437 15.726558-28.115616-3.989999-27.879366-3.989999-27.879367h-59.690606s-4.228124 23.827493-2.025 33.83624c3.753749 12.746246 15.012183 21.979681 20.730931 27.222179s8.518122 7.50656 8.518123 7.50656v15.250308l-18.34687 8.279998c-0.53625 0.237187-0.358125 1.071562 0.238125 1.071562z" fill="#F40009" p-id="21704"></path><path d="M484.396727 386.008945l19.479369-41.51905 15.009371 40.507488 16.02562 2.024999v14.236871l24.482805-5.003436-17.752495-50.515298 47.477798 20.015619-11.081246 33.71624 23.114055-5.241561 20.491869-49.739985 33.776239 26.26968-33.299989 25.734367 33.299989-0.239062 8.219998 25.734367h-21.266244l-7.504685 31.03499 27.281242 5.660624 8.757185 24.541867-32.524678 3.752811-7.50656 52.242172-17.75062 11.556559-11.259371-66.002792-21.444369-1.549687-13.344371 56.294045-18.703119 11.259371-2.204999-64.037793-16.024683-1.727812-6.253123-19.539369-7.268435 9.53156-10.008747 76.964039-39.733113-28.236554 25.496242-7.207498-4.706248-37.051863-13.998746 11.794684-12.032809-40.030301 27.759367-4.469061-3.276562-27.996554-8.219997-1.786874-13.284371-24.245618z" fill="#FFFFFF" p-id="21705"></path><path d="M526.392027 407.752376l-7.743748 10.246871-3.989999 28.771867 24.005618-1.429687-7.268435 15.906557 24.007493-8.51906-5.361561-24.959992-16.143745-4.528124z m60.224981 19.718431l20.253744-4.468124 2.800312 28.473742-27.521242 5.302498z" fill="#F40009" p-id="21706"></path></svg>