<?xml version="1.0" standalone="no"?><!DOCTYPE svg PUBLIC "-//W3C//DTD SVG 1.1//EN" "http://www.w3.org/Graphics/SVG/1.1/DTD/svg11.dtd"><svg t="1776165024068" class="icon" viewBox="0 0 1024 1024" version="1.1" xmlns="http://www.w3.org/2000/svg" p-id="36470" xmlns:xlink="http://www.w3.org/1999/xlink" width="200" height="200"><path d="M874 1024H150C67.2 1024 0 956.8 0 874V150C0 67.2 67.2 0 150 0h724c82.8 0 150 67.2 150 150v724c0 82.8-67.2 150-150 150z" fill="#FF6146" p-id="36471"></path><path d="M744.1 463.1c-7.7 1.9-13.1 8.8-13.2 16.7 0 7.7 5.2 14.2 14.1 16.9 44.2 12.1 48.5 54.7 48.9 63.5 0.6 9.4 8.1 16.4 17.5 16.4s17-7.1 17.5-16.8c0.4-8.4 4.7-51 49.8-63.4 7.6-1.9 13-8.7 13.2-16.6 0-7.8-5.2-14.3-14.1-17-44.2-12.1-48.5-54.7-48.9-63.5-0.5-9.3-8.2-16.5-17.5-16.4-9.4 0-17.2 7.4-17.5 16.8-0.4 8.4-4.7 51-49.8 63.4M465.9 779.7c-19.1-31.1-42.9-135.8-36.1-181.4 0.5-3.4 4.7-4.7 7.3-2.4 14.1 12.1 37.7 40.1 67.3 89.3 8.4 14 15.8 26.4 20.8 34.9-15.7 27.6-35.3 52.4-48.5 61.9-3.3 2.4-7.9 1.7-10.3-1.6-0.2-0.2-0.4-0.5-0.5-0.7m194.9-98.1c-1.5 70.8-13.2 93.9-19.6 101.2-2.2 2.6-6 3-8.8 1.1-12.1-8-33.4-34.6-51.2-64.1l-0.3-0.5c5-8.4 12.1-20.5 20.5-34.1 60.6-98.7 77.2-107.4 143.3-112-1.7-23.6-21.4-41.8-45-41.6-4.3 0-8.5 0.6-12.6 1.8-51.2 14.4-78.7 48.2-126.8 126.6l-7.4 12.2c-0.1-0.2-0.3-0.4-0.4-0.6v0.1l-6.9-11.4c-66.7-111-101.5-119.8-117.4-119.8-1.7 0-3.2 0.1-4.5 0.2-9.5 0.7-26.8 5.5-36.6 29.4-20.1 48.6 7.6 189.6 40.2 238.4 11.6 17.3 25 26.1 40 26.1 34.1 0 65.6-36.9 86.2-68.1 22.6 33.6 53.1 68.1 82.7 68.1 15.1 0 28.9-6.1 39.8-17.6 16.5-17.5 37.3-56.2 32.7-188.4-14.6 6.3-26.8 20.3-47.9 53" fill="#FFFFFF" p-id="36472"></path><path d="M429.2 282.9c0-24.9 20.2-45 45-45.1 1.5 0 3.1 0.1 4.6 0.2 22.6 2.3 40.2 23.7 40.2 48.8v19.6h-89.9c0.1 0 0.1-23.5 0.1-23.5zM279.9 777.2l23.7-422.3h341.2l7.8 139.7c6.9-2.9 13.9-5.7 21.6-7.9 8.4-2.3 17-3.5 25.7-3.5h0.5l-7.7-138.6c-1.2-21.4-18.8-38.1-40.2-38.1h-85V287c0-49.6-36.7-92.2-83.7-96.9-51.3-5.2-97.1 32.2-102.3 83.5-0.3 3.1-0.5 6.3-0.5 9.5v23.5h-85c-21.4 0-39.1 16.8-40.2 38.1L231.1 783c-0.6 11 3.4 21.9 10.9 30 7.6 8 18.3 12.6 29.3 12.6h110c-8.4-15.5-15.4-31.7-20.9-48.4h-80.5z" fill="#FFFFFF" p-id="36473"></path></svg>